<mxfile host="app.diagrams.net" modified="2023-12-04T04:07:50.753Z" agent="Mozilla/5.0 (Macintosh; Intel Mac OS X 10_15_7) AppleWebKit/605.1.15 (KHTML, like Gecko) Version/17.1 Safari/605.1.15" version="22.1.5" etag="eN-FuRyqp7Nexc-h1Vmk" type="github">
  <diagram name="Page-1" id="FPerI6dF4KemH__dPy9l">
    <mxGraphModel>
      <root>
        <mxCell id="0" />
        <mxCell id="1" parent="0" />
      </root>
    </mxGraphModel>
  </diagram>
</mxfile>
